<?xml version="1.0" encoding="utf-8"?>
<!-- Generator: Adobe Illustrator 21.0.0, SVG Export Plug-In . SVG Version: 6.00 Build 0)  -->
<svg version="1.1" id="Layer_1" xmlns="http://www.w3.org/2000/svg" xmlns:xlink="http://www.w3.org/1999/xlink" x="0px" y="0px"
	 viewBox="0 0 90 52.7" style="enable-background:new 0 0 90 52.7;" xml:space="preserve">
<style type="text/css">
	.st0{fill:none;}
	.st1{fill:#FFFFFF;}
</style>
<g>
	<path class="st0" d="M27.8,18.1c4.1,2.4,7.2,6.2,8.5,10.7c0.5,1.5,0.7,3.1,0.8,4.7h1.7c0.2-1.5,1-2.8,2-3.8l-10.2-17L27.8,18.1z"/>
	<path class="st0" d="M43.2,28.4c0.5-0.1,1.1-0.2,1.6-0.2c1.1,0,2.2,0.3,3.1,0.9l9.2-17.3h-24L43.2,28.4z"/>
	<path class="st1" d="M71.5,15.6c-2.1,0-4,0.4-5.9,1L59.6,2.7H68c2,0,3.6,1.6,3.6,3.6c0,0.7-0.5,1.4-1.2,1.6L68,8.7l0.8,2.6l2.4-0.7
		c1.9-0.6,3.1-2.3,3.1-4.2C74.3,2.8,71.4,0,68,0H55.5l3.9,9.1H31.6l-3-5h4.1V1.4H19.1v2.7h6.3l3.6,6l-3.6,6.8
		C16.7,13.5,6.7,17,2.2,25.4c-4.8,9-1.4,20.3,7.6,25.1c2.7,1.5,5.7,2.2,8.8,2.2c1.8,0,3.6-0.3,5.4-0.8c4.7-1.4,8.6-4.6,11-9
		c1.1-2.1,1.8-4.4,2.1-6.8h2c0.8,2.5,3.1,4.2,5.8,4.2c3.4,0,6.1-2.7,6.1-6.1c0-1.2-0.4-2.4-1-3.3l10.5-19.6l2.7,6.3
		c-6,3.1-10.1,9.3-10.1,16.5c0,10.2,8.3,18.5,18.5,18.5S90,44.4,90,34.1C90,23.9,81.7,15.6,71.5,15.6z M26.5,20.5
		c3.5,2,6.1,5.2,7.2,9.1c0.4,1.3,0.6,2.6,0.6,3.9H23.1c-0.2-1.2-0.9-2.3-1.9-3L26.5,20.5z M20.4,34.3c0,1-0.8,1.9-1.9,1.9
		c-1,0-1.9-0.8-1.9-1.9c0-1,0.8-1.9,1.9-1.9C19.6,32.4,20.4,33.3,20.4,34.3z M32.5,41.6c-2,3.7-5.3,6.4-9.4,7.7
		c-4,1.2-8.3,0.8-12.1-1.2c-3.7-2-6.4-5.3-7.7-9.4c-1.2-4-0.8-8.3,1.2-12.1c2.9-5.3,8.3-8.3,14-8.3c1.8,0,3.7,0.3,5.5,1l-5.5,10.4
		c-2.5,0-4.6,2.1-4.6,4.6c0,2.5,2.1,4.6,4.6,4.6c1.9,0,3.5-1.1,4.2-2.7h11.5C34,38.1,33.4,39.9,32.5,41.6z M38.7,33.5h-1.7
		c-0.1-1.6-0.3-3.1-0.8-4.7c-1.4-4.6-4.4-8.4-8.5-10.7l2.8-5.3l10.2,17C39.7,30.7,38.9,32,38.7,33.5z M44.8,37.7
		c-1.9,0-3.4-1.5-3.4-3.4c0-1.9,1.5-3.4,3.4-3.4s3.4,1.5,3.4,3.4C48.2,36.2,46.6,37.7,44.8,37.7z M47.9,29.1c-0.9-0.5-2-0.9-3.1-0.9
		c-0.6,0-1.1,0.1-1.6,0.2l-10-16.7h24L47.9,29.1z M71.5,50c-8.7,0-15.8-7.1-15.8-15.8c0-6.1,3.5-11.4,8.5-14l4.5,10.5
		c-1.1,0.8-1.8,2.1-1.8,3.6c0,2.5,2.1,4.6,4.6,4.6s4.6-2.1,4.6-4.6s-2.1-4.6-4.6-4.6c-0.1,0-0.2,0-0.3,0l-4.6-10.6
		c1.5-0.5,3.1-0.8,4.8-0.8c8.7,0,15.8,7.1,15.8,15.8S80.2,50,71.5,50z M71.5,32.4c1,0,1.9,0.8,1.9,1.9s-0.8,1.9-1.9,1.9
		c-1,0-1.9-0.8-1.9-1.9C69.6,33.3,70.4,32.4,71.5,32.4z"/>
	<path class="st1" d="M13.6,43.3c-5.1-2.7-7-9-4.2-14.1L7,27.9c-3.4,6.4-1,14.3,5.3,17.8c1.9,1,4,1.6,6.2,1.6c1.3,0,2.6-0.2,3.8-0.6
		c3.4-1,6.1-3.3,7.8-6.3l-2.4-1.3C25,44.1,18.7,46,13.6,43.3z"/>
	<path class="st1" d="M71.5,21v2.7c5.7,0,10.4,4.7,10.4,10.4s-4.7,10.4-10.4,10.4v2.7c7.2,0,13.1-5.9,13.1-13.1S78.7,21,71.5,21z"/>
</g>
</svg>
